<svg xmlns="http://www.w3.org/2000/svg" width="20.333" height="24.197" viewBox="0 0 20.333 24.197">
  <path id="appstore" d="M17.281,15.037a5.043,5.043,0,0,1,2.7-4.581,5.8,5.8,0,0,0-4.576-2.409c-1.918-.151-4.014,1.118-4.781,1.118C9.816,9.165,7.958,8.1,6.5,8.1,3.485,8.149.281,10.5.281,15.3a13.464,13.464,0,0,0,.778,4.386c.691,1.983,3.187,6.844,5.791,6.763,1.361-.032,2.323-.967,4.095-.967,1.718,0,2.609.967,4.127.967,2.625-.038,4.883-4.457,5.542-6.445a5.355,5.355,0,0,1-3.333-4.964Zm-3.058-8.87a5.088,5.088,0,0,0,1.3-3.916,5.728,5.728,0,0,0-3.668,1.885,5.168,5.168,0,0,0-1.383,3.884,4.537,4.537,0,0,0,3.754-1.853Z" transform="translate(-0.281 -2.25)" fill="#fff"/>
</svg>
