<svg xmlns="http://www.w3.org/2000/svg" xmlns:xlink="http://www.w3.org/1999/xlink" width="85" height="85" viewBox="0 0 85 85">
  <defs>
    <clipPath id="clip-path">
      <rect id="Rectangle_40" data-name="Rectangle 40" width="70" height="69" transform="translate(279 4864)" fill="#fff" stroke="#707070" stroke-width="1"/>
    </clipPath>
  </defs>
  <g id="Group_81" data-name="Group 81" transform="translate(-273 -4856)">
    <rect id="Rectangle_39" data-name="Rectangle 39" width="85" height="85" transform="translate(273 4856)" fill="#fff"/>
    <g id="Group_127" data-name="Group 127" transform="translate(2)">
      <g id="Mask_Group_6" data-name="Mask Group 6" clip-path="url(#clip-path)">
        <path id="Path_132" data-name="Path 132" d="M381.147,4872.123c1.026,6.951-1.35,5.2,5.77,14.83s16.155,30.223-2.518,31.37-29.7,2.3-30.915-8.833,5.791-15.577,0-25.266.4-20.788,8.121-21.317S380.122,4865.172,381.147,4872.123Z" transform="translate(-3725.84 2115.848) rotate(-51)" fill="#ace7d8"/>
        <path id="Path_133" data-name="Path 133" d="M366.428,4867.561c.521,3.534-.687,2.646,2.933,7.539s8.212,15.364-1.28,15.947-15.1,1.168-15.716-4.49,2.944-7.919,0-12.844.2-10.568,4.128-10.837S365.906,4864.027,366.428,4867.561Z" transform="translate(4737.204 7003.453) rotate(120)" fill="#ace7d8"/>
      </g>
      <g id="sign" transform="translate(284.032 4865.273)">
        <path id="Path_134" data-name="Path 134" d="M61.8,60.6l-8.369-34.86a2.74,2.74,0,0,0,.286-.576l2.844-8.056a.9.9,0,0,0-1.7-.6l-2.844,8.056a.918.918,0,0,1-1.731-.611L55.217,9.97a.9.9,0,0,0-.552-1.153L50.549,7.364a.918.918,0,0,1,.611-1.731l5.834,2.059a.919.919,0,0,1,.56,1.171L56.4,12.123a.9.9,0,0,0,1.7.6l1.151-3.261a2.8,2.8,0,0,0-1.846-3.542l.726-2.058a2.95,2.95,0,0,0-1.769-3.7,2.9,2.9,0,0,0-3.7,1.769l-.726,2.058c-2.929-1.333-5.232,2.924-2.658,4.735l-.92,2.606H12.676a.9.9,0,0,0-.879.693L3.668,45.888a.9.9,0,0,0,1.758.422l7.963-33.169h34.34L37.112,43.218a.964.964,0,0,0-.046.2l-.665,5.97a.9.9,0,0,0,.6.952l.623.22-.628,1.778a.9.9,0,0,0,1.7.6l.628-1.778.623.22a.921.921,0,0,0,1.063-.366l3.231-5.064a.954.954,0,0,0,.09-.185l6.633-18.792a2.544,2.544,0,0,0,.881-.086l7.926,33.016H2.162l1.859-7.744a.9.9,0,0,0-1.758-.422L.136,60.6a.9.9,0,0,0,.879,1.115H60.922A.9.9,0,0,0,61.8,60.6ZM54.376,2.536a1.092,1.092,0,0,1,2.059.727l-.726,2.058L53.65,4.594Zm-5.8,20.813a2.83,2.83,0,0,0,.725,2.914L42.931,44.313l-3.812-1.346L50.958,9.425l2.253.8Zm-8.7,26.091-1.6-.564.459-4.125,3.37,1.19Z" transform="translate(0 0)" stroke="#000" stroke-width="1"/>
        <path id="Path_135" data-name="Path 135" d="M172.5,172.3a.9.9,0,0,0,0-1.808H150.844a.9.9,0,0,0,0,1.808Z" transform="translate(-131.761 -149.939)" stroke="#000" stroke-width="1"/>
        <path id="Path_136" data-name="Path 136" d="M139.892,233.545a.9.9,0,0,0,.9.9h19.992a.9.9,0,0,0,0-1.808H140.8A.9.9,0,0,0,139.892,233.545Z" transform="translate(-122.919 -204.599)" stroke="#000" stroke-width="1"/>
        <path id="Path_137" data-name="Path 137" d="M127.892,295.7a.9.9,0,0,0,.9.9h18.917a.9.9,0,0,0,0-1.808H128.8A.9.9,0,0,0,127.892,295.7Z" transform="translate(-112.365 -259.261)" stroke="#000" stroke-width="1"/>
        <path id="Path_138" data-name="Path 138" d="M105.709,368.185q1.186-2.012,2.427-3.991c.784-1.252,1.694-3.405,2.978-4.244.815-.532.192,3.382.173,3.679-.076,1.2-.352,2.9.984,3.553,1.365.665,3.23-1.017,4.406-1.5a12.655,12.655,0,0,0,.805,2.086c1.176,2.045,4.492,1.325,6.313.726,1.1-.362.629-2.109-.481-1.743-1.075.354-3.909,1.254-4.442-.295-.334-.971-.575-2.573-1.888-2.635-1.451-.068-2.6,1.113-3.845,1.635-.112.047.125-3.527.152-3.816.122-1.32.141-3.115-1.463-3.533-1.244-.324-2.16.631-2.83,1.527a82.857,82.857,0,0,0-4.852,7.64A.9.9,0,0,0,105.709,368.185Z" transform="translate(-91.367 -314.884)" stroke="#000" stroke-width="1"/>
      </g>
    </g>
  </g>
</svg>
