<svg xmlns="http://www.w3.org/2000/svg" xmlns:xlink="http://www.w3.org/1999/xlink" width="85" height="85" viewBox="0 0 85 85">
  <defs>
    <clipPath id="clip-path">
      <rect id="Rectangle_43" data-name="Rectangle 43" width="69" height="69" transform="translate(278 4869)" fill="#fff" stroke="#707070" stroke-width="1"/>
    </clipPath>
  </defs>
  <g id="Group_83" data-name="Group 83" transform="translate(-270 -4861)">
    <rect id="Rectangle_44" data-name="Rectangle 44" width="85" height="85" transform="translate(270 4861)" fill="#fff"/>
    <g id="Group_129" data-name="Group 129">
      <g id="Mask_Group_8" data-name="Mask Group 8" clip-path="url(#clip-path)">
        <path id="Path_132" data-name="Path 132" d="M381.147,4872.123c1.026,6.951-1.35,5.2,5.77,14.83s16.155,30.223-2.518,31.37-29.7,2.3-30.915-8.833,5.791-15.577,0-25.266.4-20.788,8.121-21.317S380.122,4865.172,381.147,4872.123Z" transform="translate(-3726.84 2120.439) rotate(-51)" fill="#ace7d8"/>
        <path id="Path_133" data-name="Path 133" d="M366.428,4867.561c.521,3.534-.687,2.646,2.933,7.539s8.212,15.364-1.28,15.947-15.1,1.168-15.716-4.49,2.944-7.919,0-12.844.2-10.568,4.128-10.837S365.906,4864.027,366.428,4867.561Z" transform="translate(4736.204 7008.045) rotate(120)" fill="#ace7d8"/>
      </g>
      <g id="subscription" transform="translate(282.059 4872.06)">
        <path id="Path_154" data-name="Path 154" d="M154.617,0H131.194A3.194,3.194,0,0,0,128,3.194V41.523a3.194,3.194,0,0,0,3.194,3.194h6.388V42.588h-6.388a1.065,1.065,0,0,1-1.065-1.065V3.194a1.065,1.065,0,0,1,1.065-1.065h23.423a1.065,1.065,0,0,1,1.065,1.065V41.523a1.065,1.065,0,0,1-1.065,1.065h-6.388v2.129h6.388a3.194,3.194,0,0,0,3.194-3.194V3.194A3.194,3.194,0,0,0,154.617,0Zm0,0" transform="translate(-110.965)"/>
        <path id="Path_155" data-name="Path 155" d="M3.194,68.2H14.906V66.07H3.194a1.065,1.065,0,0,1-1.065-1.065V35.194a1.065,1.065,0,0,1,1.065-1.065H14.906V32H3.194A3.194,3.194,0,0,0,0,35.194V65.005A3.194,3.194,0,0,0,3.194,68.2Zm0,0" transform="translate(0 -27.741)"/>
        <path id="Path_156" data-name="Path 156" d="M192,40h2.129v2.129H192Zm0,0" transform="translate(-166.447 -34.677)"/>
        <path id="Path_157" data-name="Path 157" d="M224,40h8.518v2.129H224Zm0,0" transform="translate(-194.189 -34.677)"/>
        <path id="Path_158" data-name="Path 158" d="M168,80h2.129v4.259H168Zm0,0" transform="translate(-145.642 -69.353)"/>
        <path id="Path_159" data-name="Path 159" d="M200,80h2.129v4.259H200Zm0,0" transform="translate(-173.383 -69.353)"/>
        <path id="Path_160" data-name="Path 160" d="M232,80h2.129v4.259H232Zm0,0" transform="translate(-201.124 -69.353)"/>
        <path id="Path_161" data-name="Path 161" d="M264,80h2.129v4.259H264Zm0,0" transform="translate(-228.865 -69.353)"/>
        <path id="Path_162" data-name="Path 162" d="M296,80h2.129v4.259H296Zm0,0" transform="translate(-256.607 -69.353)"/>
        <path id="Path_163" data-name="Path 163" d="M232,136h7.453v2.129H232Zm0,0" transform="translate(-201.124 -117.9)"/>
        <path id="Path_164" data-name="Path 164" d="M195.194,238.388h6.388a3.194,3.194,0,1,0,0-6.388h-6.388a3.194,3.194,0,1,0,0,6.388Zm0-4.259h6.388a1.065,1.065,0,0,1,0,2.129h-6.388a1.065,1.065,0,0,1,0-2.129Zm0,0" transform="translate(-166.447 -201.124)"/>
        <path id="Path_165" data-name="Path 165" d="M88,64h3.194v2.129H88Zm0,0" transform="translate(-76.288 -55.482)"/>
        <path id="Path_166" data-name="Path 166" d="M32,104h2.129v3.194H32Zm0,0" transform="translate(-27.741 -90.159)"/>
        <path id="Path_167" data-name="Path 167" d="M64,104h2.129v3.194H64Zm0,0" transform="translate(-55.482 -90.159)"/>
        <path id="Path_168" data-name="Path 168" d="M96,104h2.129v3.194H96Zm0,0" transform="translate(-83.224 -90.159)"/>
        <path id="Path_169" data-name="Path 169" d="M56,64h2.129v2.129H56Zm0,0" transform="translate(-48.547 -55.482)"/>
        <path id="Path_170" data-name="Path 170" d="M43.194,222.388h6.388v-2.129H43.194a1.065,1.065,0,1,1,0-2.129h6.388V216H43.194a3.194,3.194,0,1,0,0,6.388Zm0,0" transform="translate(-34.677 -187.253)"/>
        <path id="Path_171" data-name="Path 171" d="M379.712,32H368v2.129h11.712a1.065,1.065,0,0,1,1.065,1.065V65.005a1.065,1.065,0,0,1-1.065,1.065H368V68.2h11.712a3.194,3.194,0,0,0,3.194-3.194V35.194A3.194,3.194,0,0,0,379.712,32Zm0,0" transform="translate(-319.024 -27.741)"/>
        <path id="Path_172" data-name="Path 172" d="M368,64h7.453v2.129H368Zm0,0" transform="translate(-319.024 -55.482)"/>
        <path id="Path_173" data-name="Path 173" d="M432,104h2.129v3.194H432Zm0,0" transform="translate(-374.507 -90.159)"/>
        <path id="Path_174" data-name="Path 174" d="M400,104h2.129v3.194H400Zm0,0" transform="translate(-346.766 -90.159)"/>
        <path id="Path_175" data-name="Path 175" d="M368,104h2.129v3.194H368Zm0,0" transform="translate(-319.024 -90.159)"/>
        <path id="Path_176" data-name="Path 176" d="M368,216v2.129h6.388a1.065,1.065,0,1,1,0,2.129H368v2.129h6.388a3.194,3.194,0,0,0,0-6.388Zm0,0" transform="translate(-319.024 -187.253)"/>
        <path id="Path_177" data-name="Path 177" d="M186.616,319.407v-11.6a3.284,3.284,0,0,0-2.662-3.265,3.21,3.21,0,0,0-2.6.717c-.021.017-.043.035-.063.055a3.187,3.187,0,0,0-4.259,0,3.317,3.317,0,0,0-3.194-.634v-5.391a3.283,3.283,0,0,0-2.662-3.265,3.194,3.194,0,0,0-3.728,3.151V312.2l-2.825-1.695a2.923,2.923,0,0,0-2.831-.107l-.169.084a2.945,2.945,0,0,0-.394,5.03l6.666,4.76a1.06,1.06,0,0,0,.619.2h17.035A1.065,1.065,0,0,0,186.616,319.407Zm-2.129-1.065h-15.63l-6.388-4.562a.817.817,0,0,1,.107-1.394l.169-.083a.809.809,0,0,1,.782.03l4.439,2.662a1.065,1.065,0,0,0,1.615-.911V299.178a1.064,1.064,0,0,1,1.251-1.049,1.153,1.153,0,0,1,.879,1.162v8.4a1.065,1.065,0,0,0,2.129,0,1.065,1.065,0,1,1,2.129,0,1.065,1.065,0,1,0,2.129,0,1.065,1.065,0,1,1,2.129,0,1.065,1.065,0,1,0,2.129,0,1.064,1.064,0,0,1,1.251-1.049,1.153,1.153,0,0,1,.879,1.162Zm0,0" transform="translate(-138.705 -256.59)"/>
        <path id="Path_178" data-name="Path 178" d="M192,136h3.194v2.129H192Zm0,0" transform="translate(-166.447 -117.9)"/>
        <path id="Path_179" data-name="Path 179" d="M192,168h12.776v2.129H192Zm0,0" transform="translate(-166.447 -145.642)"/>
        <path id="Path_180" data-name="Path 180" d="M208,200h8.518v2.129H208Zm0,0" transform="translate(-180.318 -173.383)"/>
        <path id="Path_181" data-name="Path 181" d="M64,152h6.388v2.129H64Zm0,0" transform="translate(-55.482 -131.771)"/>
        <path id="Path_182" data-name="Path 182" d="M80,184h4.259v2.129H80Zm0,0" transform="translate(-69.353 -159.512)"/>
        <path id="Path_183" data-name="Path 183" d="M368,152h5.323v2.129H368Zm0,0" transform="translate(-319.024 -131.771)"/>
        <path id="Path_184" data-name="Path 184" d="M368,184h3.194v2.129H368Zm0,0" transform="translate(-319.024 -159.512)"/>
      </g>
    </g>
  </g>
</svg>
