<svg xmlns="http://www.w3.org/2000/svg" width="92.855" height="38.111" viewBox="0 0 92.855 38.111">
  <path id="Icon_awesome-apple-pay" data-name="Icon awesome-apple-pay" d="M16.963,13.671a5.7,5.7,0,0,1-4.57,2.162A6.431,6.431,0,0,1,14.033,11.1a6.82,6.82,0,0,1,4.541-2.336,6.9,6.9,0,0,1-1.61,4.9m1.581,2.5c-2.524-.145-4.686,1.436-5.876,1.436-1.219,0-3.047-1.364-5.049-1.32A7.457,7.457,0,0,0,1.3,20.127C-1.432,24.813.584,31.733,3.225,35.549c1.291,1.886,2.829,3.961,4.86,3.888,1.929-.073,2.684-1.248,5.005-1.248s3.018,1.248,5.049,1.219c2.1-.044,3.424-1.886,4.715-3.772a16.4,16.4,0,0,0,2.1-4.338,6.854,6.854,0,0,1-4.106-6.224,6.979,6.979,0,0,1,3.322-5.847,7.17,7.17,0,0,0-5.629-3.061M33.11,10.915V39.19h4.4V29.528h6.079c5.556,0,9.444-3.815,9.444-9.328a8.868,8.868,0,0,0-9.3-9.285H33.11Zm4.4,3.7h5.063c3.815,0,5.992,2.031,5.992,5.6s-2.176,5.629-6.006,5.629H37.506ZM61.037,39.408a7.243,7.243,0,0,0,6.47-3.612h.087V39.19h4.062V25.118c0-4.077-3.264-6.717-8.284-6.717-4.657,0-8.11,2.669-8.24,6.325h3.961c.334-1.741,1.944-2.887,4.149-2.887,2.684,0,4.193,1.248,4.193,3.554V26.96l-5.484.334c-5.092.3-7.849,2.394-7.849,6.021C54.117,36.97,56.96,39.408,61.037,39.408Zm1.19-3.351c-2.336,0-3.83-1.132-3.83-2.843,0-1.784,1.436-2.814,4.178-2.974l4.875-.3v1.6c0,2.64-2.249,4.526-5.223,4.526ZM77.1,46.879c4.28,0,6.3-1.639,8.052-6.586l7.7-21.616H88.383l-5.165,16.7h-.087l-5.165-16.7H73.383L80.81,39.263,80.4,40.51c-.667,2.118-1.755,2.945-3.7,2.945-.348,0-1.016-.044-1.291-.073v3.395A15.206,15.206,0,0,0,77.1,46.879Z" transform="translate(0.004 -8.768)" fill="#2b2b2b"/>
</svg>
