<svg xmlns="http://www.w3.org/2000/svg" width="92.856" height="42.588" viewBox="0 0 92.856 42.588">
  <path id="Icon_awesome-stripe" data-name="Icon awesome-stripe" d="M23.936,12.059l-6.283,1.485-.029,22.98c0,4.244,2.873,6.988,6.69,6.988a9.165,9.165,0,0,0,4.527-.952V37.105c-.827.371-4.89,1.694-4.89-2.534v-10.2h4.89v-6.1H23.95Zm12.929,8.327-.392-2.114H30.9V43h6.428V26.358a4.278,4.278,0,0,1,4.919-1.5V18.272a4.173,4.173,0,0,0-5.384,2.114ZM50.258,8.719l-6.472,1.533v5.842l6.472-1.533ZM6.508,25.551c0-1.114.842-1.549,2.191-1.565a13.3,13.3,0,0,1,6.414,1.84V19.079a15.671,15.671,0,0,0-6.4-1.307c-5.224,0-8.707,3.034-8.707,8.1,0,7.94,9.795,6.649,9.795,10.07,0,1.323-1.03,1.759-2.467,1.759A15.055,15.055,0,0,1,.283,35.411v6.455A16.323,16.323,0,0,0,7.321,43.5c5.355,0,9.04-2.55,9.04-7.714,0-8.537-9.853-7-9.853-10.231Zm86.355,5.374c0-7.343-3.192-13.136-9.316-13.136s-9.853,5.794-9.853,13.088c0,8.634,4.4,12.62,10.666,12.62A13.282,13.282,0,0,0,91.5,41.64V36.25a12.513,12.513,0,0,1-6.327,1.582c-2.51,0-4.716-.984-5.006-4.341h12.61c.029-.371.087-1.872.087-2.566ZM80.107,28.213c0-3.228,1.785-4.583,3.4-4.583,1.582,0,3.265,1.356,3.265,4.583ZM63.725,17.788a6.922,6.922,0,0,0-5.05,2.243l-.334-1.775H52.667V51.307L59.11,49.79l.015-8.1A6.811,6.811,0,0,0,63.681,43.5C68.3,43.5,72.5,39.752,72.5,30.65c.015-8.327-4.252-12.862-8.779-12.862ZM62.186,37.557A3.694,3.694,0,0,1,59.154,36.2L59.11,25.551a3.7,3.7,0,0,1,3.076-1.42c2.351,0,3.976,2.937,3.976,6.681C66.177,34.669,64.581,37.557,62.186,37.557ZM43.8,43h6.472V18.272H43.8Z" transform="translate(-0.007 -8.719)" fill="#2b2b2b"/>
</svg>
