<svg xmlns="http://www.w3.org/2000/svg" width="54.519" height="54.519" viewBox="0 0 54.519 54.519">
  <path id="Icon_simple-xero" data-name="Icon simple-xero" d="M27.259,0A27.259,27.259,0,1,0,54.519,27.259,27.26,27.26,0,0,0,27.259,0ZM42.218,33.29a6.111,6.111,0,1,1,6.111-6.108A6.113,6.113,0,0,1,42.218,33.29Zm-25.113-.025A.852.852,0,0,1,16.5,33l-4.641-4.634L7.2,33.018a.832.832,0,0,1-1.422-.591.845.845,0,0,1,.252-.6l4.634-4.657-4.63-4.65a.793.793,0,0,1-.257-.593A.837.837,0,0,1,7.2,21.337l4.668,4.652,4.652-4.645a.815.815,0,0,1,.591-.245.838.838,0,0,1,.852.831.766.766,0,0,1-.236.586l-4.67,4.668,4.668,4.659a.824.824,0,0,1,.236.586.837.837,0,0,1-.829.836h-.023ZM35.317,22.836c-1.808.229-2,1.081-2,3.189v6.331a.834.834,0,0,1-1.667,0V22.066a.821.821,0,0,1,.822-.831.813.813,0,0,1,.786.656,3.458,3.458,0,0,1,2.113-.72h.239a.826.826,0,1,1-.036,1.651s-.2,0-.373.018l.12,0ZM28.3,27.845h-8.7a.865.865,0,0,0,.014.129,4.126,4.126,0,0,0,.189.7,4.375,4.375,0,0,0,6.2,2.41,4.555,4.555,0,0,0,1.193-.972,2.923,2.923,0,0,0,.273-.382.832.832,0,0,1,1.227-.189.949.949,0,0,1,.1,1.295l-.036.036a6.525,6.525,0,0,1-1.565,1.5,5.546,5.546,0,0,1-1.842.784,5.459,5.459,0,0,1-2.215.136,6.111,6.111,0,0,1-5.179-4.566,5.248,5.248,0,0,1-.2-1.465,6.089,6.089,0,0,1,9.37-5.179,6.071,6.071,0,0,1,2.692,4.023,1.567,1.567,0,0,1-1.667,1.84l.154-.1ZM42.218,22.8A4.386,4.386,0,1,0,46.6,27.182,4.391,4.391,0,0,0,42.218,22.8Zm0,5.895a1.512,1.512,0,1,1,1.515-1.513A1.512,1.512,0,0,1,42.218,28.69ZM23.954,22.777a4.419,4.419,0,0,0-4.284,3.33v.068h8.578a4.422,4.422,0,0,0-4.3-3.394v0Z" fill="#2b2b2b"/>
</svg>
