<svg xmlns="http://www.w3.org/2000/svg" width="46.68" height="55.141" viewBox="0 0 46.68 55.141">
  <path id="Icon_awesome-paypal" data-name="Icon awesome-paypal" d="M13.541,34.476c-.426,2.335-2.116,13.217-2.614,16.293-.036.219-.122.3-.365.3H1.491A1.477,1.477,0,0,1,.02,49.383L7.145,4.164A2.469,2.469,0,0,1,9.577,2.109c18.518,0,20.074-.45,24.8,1.386,7.308,2.833,7.976,9.666,5.35,17.059-2.614,7.612-8.815,10.882-17.035,10.98-5.277.085-8.45-.851-9.156,2.942Zm29.875-17.5c-.219-.158-.3-.219-.365.158a28.457,28.457,0,0,1-1.07,4.085c-4.851,13.837-18.3,12.633-24.865,12.633A1.223,1.223,0,0,0,15.79,35c-2.748,17.071-3.3,20.634-3.3,20.634A1.3,1.3,0,0,0,13.784,57.2H21.5a2.181,2.181,0,0,0,2.116-1.812c.085-.657-.134.742,1.751-11.1.559-2.675,1.739-2.4,3.563-2.4,8.633,0,15.369-3.5,17.375-13.655.79-4.231.559-8.681-2.894-11.259Z" transform="translate(-0.006 -2.06)" fill="#2b2b2b"/>
</svg>
