<svg xmlns="http://www.w3.org/2000/svg" width="498.192" height="358" viewBox="0 0 498.192 358">
  <g id="OBJECTS" transform="translate(-33.966 -89.14)">
    <g id="Group_58" data-name="Group 58" transform="translate(33.966 89.14)">
      <g id="Group_57" data-name="Group 57">
        <g id="Group_1" data-name="Group 1">
          <path id="Path_1" data-name="Path 1" d="M495.629,447.065c29.258,0,46.971-29.962,29.775-51.3q-.543-.675-1.122-1.329c-10.515-11.92-26.473-16.191-40.607-22.843-3.905-1.838-7.834-3.985-10.561-7.442-3.8-4.813-4.708-11.543-3.924-17.731,3.285-25.9,31.525-41.86,36.083-67.545,3.448-19.43-8.447-39.16-24.559-49.444s-35.586-12.87-54.44-13.674-37.967-.091-56.318-4.688c-4.839-1.213-9.85-2.958-13.139-6.868-3.729-4.433-4.512-10.843-3.919-16.719,1.6-15.839,37.691-70.3,19.614-88.267-7.117-7.075-16.772-10.9-26.487-9.929s-18.789,5.435-27.295,10.447c-17.975,10.588-80.671,80.781-103.231,91.39-22.171,10.426-47.633,7.36-71.931,6.859s-51.3,3.12-67.184,22.389c-5.625,6.824-9.508,16.017-7.619,24.812,1.178,5.488,4.465,10.236,8.2,14.28,8.526,9.238,19.641,15.61,27.7,25.292s12.32,25.053,4.737,35.153c-2.943,3.918-7.222,6.439-11.412,8.8-23.439,13.216-49.736,26.779-59.974,52.515-5.228,13.144-5.129,27.634-1.246,41.274,4.112,14.452,18.565,24.562,35.119,24.562Z" transform="translate(-33.966 -89.14)" fill="#cae2ff"/>
          <path id="Path_2" data-name="Path 2" d="M500.88,394.437c-10.515-11.92-26.473-16.191-40.607-22.843-3.905-1.838-7.834-3.985-10.561-7.442-3.8-4.813-4.708-11.543-3.924-17.731,3.285-25.9,31.525-41.86,36.083-67.545,3.448-19.43-8.447-39.16-24.559-49.444s-35.586-12.87-54.44-13.674-37.967-.091-56.318-4.688c-4.839-1.213-9.85-2.958-13.139-6.868-3.729-4.433-4.512-10.843-3.919-16.719,1.6-15.839,37.691-70.3,19.614-88.267a33.691,33.691,0,0,0-22.653-10.061c11.421,3.105,19.772,9.634,13.692,23.01-14.041,30.891-144.342,133.671-52.794,143.781s-60.1,91.547,8.987,97.163c52.7,4.285-55.407,66.019-109.464,93.953H472.227c29.258,0,46.971-29.962,29.775-51.3Q501.459,395.091,500.88,394.437Z" transform="translate(-10.564 -89.138)" fill="#a6cef4" opacity="0.41" style="mix-blend-mode: multiply;isolation: isolate"/>
          <path id="Path_3" data-name="Path 3" d="M101.07,173.02s94.884,32.661,137.076-43.688S21.434,144.653,101.07,173.02Z" transform="translate(-26.04 -87.534)" fill="#cae2ff"/>
          <path id="Path_4" data-name="Path 4" d="M215.457,99.65c6.722,4.463,8.056,12.514,1.029,25.231C186.635,178.9,130.419,178.347,100.08,173.4c11.073,3.444,96.459,27.249,135.873-44.074C247.611,108.236,236.277,99.972,215.457,99.65Z" transform="translate(-23.848 -87.532)" fill="#a6cef4" opacity="0.41" style="mix-blend-mode: multiply;isolation: isolate"/>
        </g>
        <g id="Group_8" data-name="Group 8" transform="translate(0.268 220.681)">
          <g id="Group_7" data-name="Group 7">
            <g id="Group_2" data-name="Group 2" transform="translate(19.974)">
              <path id="Path_5" data-name="Path 5" d="M75.081,382.6s-3.463-3.234-1.138-15.5,8.221-24.055,5.328-37.367-25.577-46.878-25.653-49.11-7,39.049,4.732,55.31,13.142,21.9,12.621,30.455.121,15.438,1.408,17.427Z" transform="translate(-51.521 -280.53)" fill="#4286e8"/>
              <path id="Path_6" data-name="Path 6" d="M72.657,357.908c-1.364,5.473-2.188,19.2-.008,22.484.2.307.5.133.86-.435-.664-2.269-1.1-6.245.156-12.875,2.325-12.272,8.221-24.055,5.328-37.367s-25.577-46.878-25.653-49.11c0,0,3.419,27.966,14.93,47.214C76.512,341.6,74.02,352.435,72.657,357.908Z" transform="translate(-51.243 -280.519)" fill="#1d54b5"/>
            </g>
            <g id="Group_3" data-name="Group 3" transform="translate(45.718 29.943)">
              <path id="Path_7" data-name="Path 7" d="M75.8,377.773s-6.665-16.637,4.629-31.043,29.356-32.9,29.716-40.231c0,0,4.641,34.791-10.059,44.639s-25.009,11.421-22.46,26.573Z" transform="translate(-73.848 -306.499)" fill="#4286e8"/>
              <path id="Path_8" data-name="Path 8" d="M91.451,344.143c-16.39,11.932-17.731,25.675-15.188,32.049a1.626,1.626,0,0,0,1.067.961c-2.2-14.626,8.027-16.29,22.542-26.015,14.7-9.848,10.059-44.639,10.059-44.639S107.844,332.213,91.451,344.143Z" transform="translate(-73.633 -306.499)" fill="#1d54b5"/>
            </g>
            <g id="Group_5" data-name="Group 5" transform="translate(0 23.319)">
              <path id="Path_9" data-name="Path 9" d="M70.91,379.026a58.16,58.16,0,0,0,1-18.322c-1.137-9.51-11.073-14.862-20.357-24.907-4.776-5.169-6.188-32.5-3.227-35.043,0,0-16.39,19.863-13.862,34.407S63.729,359.156,66.2,366.182a39.026,39.026,0,0,1,2.269,12.928Z" transform="translate(-34.198 -300.754)" fill="#4286e8"/>
              <g id="Group_4" data-name="Group 4" transform="translate(6.603)">
                <path id="Path_10" data-name="Path 10" d="M41.909,308.522c-5.418,14.67.135,32.437,18.13,43.473,13.248,8.124,9.029,25.018,9.029,25.018l2.164-6.666a52.905,52.905,0,0,0-.2-9.692c-1.137-9.51-11.073-14.862-20.357-24.907-4.606-4.986-6.082-30.582-3.525-34.673A87.534,87.534,0,0,0,41.909,308.522Z" transform="translate(-39.924 -300.705)" fill="#1d54b5"/>
                <path id="Path_11" data-name="Path 11" d="M46.192,301.124c.186-.234.3-.37.3-.37A1.676,1.676,0,0,0,46.192,301.124Z" transform="translate(-38.965 -300.754)" fill="#49b4d6"/>
              </g>
            </g>
            <g id="Group_6" data-name="Group 6" transform="translate(51.1 65.606)">
              <path id="Path_12" data-name="Path 12" d="M78.516,372.313s3.842-14.254,13.343-16.173,20.411-15.958,21-18.712C112.859,337.429,111.258,363.906,78.516,372.313Z" transform="translate(-78.516 -337.429)" fill="#4286e8"/>
              <path id="Path_13" data-name="Path 13" d="M90.825,360.853c-5.822,2.91-8.242,6.826-9.1,10.38,29.15-9.374,30.646-33.8,30.646-33.8a10.435,10.435,0,0,1-1.481,2.785C108.03,345.222,101.108,355.712,90.825,360.853Z" transform="translate(-78.025 -337.429)" fill="#1d54b5"/>
            </g>
          </g>
          <path id="Path_14" data-name="Path 14" d="M102.942,363.131H53.251l5.9,37.115a5.8,5.8,0,0,0,5.725,4.887H91.316a5.8,5.8,0,0,0,5.725-4.887Z" transform="translate(-31.282 -267.889)" fill="#f95858"/>
          <path id="Path_15" data-name="Path 15" d="M101.966,369.272l.976-6.141H53.251l.976,6.141Z" transform="translate(-31.282 -267.889)" fill="#e53838"/>
          <path id="Path_16" data-name="Path 16" d="M87.449,363.131l-5.9,37.115a5.8,5.8,0,0,1-5.725,4.887H87.862a5.8,5.8,0,0,0,5.725-4.887l5.9-37.115Z" transform="translate(-27.828 -267.889)" fill="#e53838"/>
        </g>
        <g id="Group_26" data-name="Group 26" transform="translate(74.264 113.499)">
          <g id="Group_9" data-name="Group 9" transform="translate(132.99 40.965)">
            <rect id="Rectangle_2" data-name="Rectangle 2" width="10.343" height="84.593" transform="translate(49.968 118.942)" fill="#fff"/>
            <rect id="Rectangle_3" data-name="Rectangle 3" width="4.063" height="84.593" transform="translate(56.248 118.942)" fill="#e8f2fc"/>
            <path id="Path_17" data-name="Path 17" d="M295.263,393.615H238.725a3.464,3.464,0,0,0-3.464,3.464h0a3.464,3.464,0,0,0,3.464,3.464h56.538a3.464,3.464,0,0,0,3.464-3.464h0A3.464,3.464,0,0,0,295.263,393.615Z" transform="translate(-210.413 -197.008)" fill="#fff"/>
            <path id="Path_18" data-name="Path 18" d="M295.2,393.615H238.658A3.451,3.451,0,0,0,235.7,395.3h48.965a3.445,3.445,0,0,1,2.958,5.243H295.2a3.464,3.464,0,1,0,0-6.927Z" transform="translate(-210.346 -197.008)" fill="#e8f2fc"/>
            <rect id="Rectangle_4" data-name="Rectangle 4" width="10.343" height="7.532" transform="translate(49.968 118.942)" fill="#e8f2fc"/>
            <path id="Path_19" data-name="Path 19" d="M327.606,224.1a11.776,11.776,0,0,0-4.787-1H264.591a11.857,11.857,0,0,0-11.646,9.63L234.7,328.124a11.906,11.906,0,0,0,0,4.486c.006.032.016.063.023.1H218.534a4.824,4.824,0,0,0,0,9.648h52.324v-.146h33.724a11.857,11.857,0,0,0,11.646-9.63l18.237-95.391A11.872,11.872,0,0,0,327.606,224.1Z" transform="translate(-213.711 -223.103)" fill="#f93"/>
            <path id="Path_20" data-name="Path 20" d="M334.461,237.054,316.23,332.447a11.848,11.848,0,0,1-11.641,9.623H270.856v.152H218.538a4.824,4.824,0,0,1,0-9.649h16.186a.3.3,0,0,1-.025-.1c.14.013.306.013.445.013h58.221a16.312,16.312,0,0,0,16.023-13.242L327.6,223.977A11.868,11.868,0,0,1,334.461,237.054Z" transform="translate(-213.711 -222.969)" fill="#e8f2fc"/>
            <path id="Path_21" data-name="Path 21" d="M309.5,306.1l-.114.571a16.312,16.312,0,0,1-16.023,13.242H235.143c-.14,0-.306,0-.445-.013a.3.3,0,0,0,.025.1H218.537a4.813,4.813,0,0,0-4.761,4.088V311.055c0-.025-.013-.063-.013-.1a4.363,4.363,0,0,1,4.406-4.85Z" transform="translate(-213.71 -210.4)" fill="#fff"/>
            <path id="Path_22" data-name="Path 22" d="M324.849,224.1l-18.213,95.268a16.327,16.327,0,0,1-16.022,13.248H232.386c-.144,0-.3,0-.445-.01a11.906,11.906,0,0,1,0-4.486l18.247-95.391a11.857,11.857,0,0,1,11.646-9.63h58.227A11.776,11.776,0,0,1,324.849,224.1Z" transform="translate(-210.954 -223.103)" fill="#fff"/>
          </g>
          <g id="Group_13" data-name="Group 13" transform="translate(5.991 19.098)">
            <path id="Path_23" data-name="Path 23" d="M206.473,204.138H107.351a3.781,3.781,0,0,0-3.742,4.326l8.488,58.279a3.782,3.782,0,0,0,3.742,3.237h99.122a3.781,3.781,0,0,0,3.743-4.326l-8.489-58.281A3.78,3.78,0,0,0,206.473,204.138Z" transform="translate(-103.569 -204.138)" fill="#1d54b5"/>
            <path id="Path_24" data-name="Path 24" d="M192.608,204.138H107.351a3.781,3.781,0,0,0-3.742,4.326l3.751,25.759a76.089,76.089,0,0,0,30.494,6.269C166.279,240.492,183.03,225.392,192.608,204.138Z" transform="translate(-103.569 -204.138)" fill="#3070ce"/>
            <g id="Group_10" data-name="Group 10" transform="translate(36.508 44.481)">
              <path id="Path_25" data-name="Path 25" d="M156.66,242.717H137.891a2.655,2.655,0,0,0-2.631,3.039l5.687,39.032a3.034,3.034,0,0,0,.022.369l.257,1.539a2.654,2.654,0,0,0,2.624,2.27h18.524Z" transform="translate(-135.231 -242.715)" fill="#4286e8"/>
              <path id="Path_26" data-name="Path 26" d="M181.781,286.238a2.69,2.69,0,0,0-2.69-2.647h-14.2a4.186,4.186,0,0,1-4.147-3.618l-4.161-30.4h2.466a2.657,2.657,0,0,0,2.629-3.039l-.253-1.539a2.656,2.656,0,0,0-2.629-2.274h-4.925a3.713,3.713,0,0,0-3.679,4.206l5.191,38.679a3.883,3.883,0,0,0,3.848,3.366l19.859,0a2.691,2.691,0,0,0,2.691-2.732Z" transform="translate(-132.947 -242.715)" fill="#1d54b5"/>
            </g>
            <g id="Group_11" data-name="Group 11" transform="translate(71.584 55.65)">
              <path id="Path_27" data-name="Path 27" d="M169.207,254.179a1.777,1.777,0,1,1-1.778-1.777A1.777,1.777,0,0,1,169.207,254.179Z" transform="translate(-165.652 -252.402)" fill="#4286e8"/>
              <path id="Path_28" data-name="Path 28" d="M177.122,254.179a1.777,1.777,0,1,1-1.777-1.777A1.777,1.777,0,0,1,177.122,254.179Z" transform="translate(-164.441 -252.402)" fill="#4286e8"/>
              <circle id="Ellipse_1" data-name="Ellipse 1" cx="1.777" cy="1.777" r="1.777" transform="translate(17.124)" fill="#4286e8"/>
            </g>
            <path id="Path_29" data-name="Path 29" d="M191.591,231.168l5.182,35.576a3.781,3.781,0,0,0,3.742,3.237H202a3.781,3.781,0,0,0,3.743-4.326l-8.489-58.281a3.78,3.78,0,0,0-3.742-3.235h-1.487a3.78,3.78,0,0,0-3.742,4.326l3.306,22.7" transform="translate(-90.61 -204.138)" fill="#4286e8"/>
            <g id="Group_12" data-name="Group 12" transform="translate(27.49 6.362)">
              <path id="Path_30" data-name="Path 30" d="M163.4,209.656H128.784a1.373,1.373,0,0,0-1.356,1.592l.232,1.433a1.375,1.375,0,0,0,1.356,1.154h34.615a1.373,1.373,0,0,0,1.356-1.592l-.233-1.433A1.373,1.373,0,0,0,163.4,209.656Z" transform="translate(-127.41 -209.656)" fill="#4286e8"/>
            </g>
          </g>
          <g id="Group_22" data-name="Group 22" transform="translate(113.661)">
            <path id="Path_31" data-name="Path 31" d="M288.34,230.794c-1.1-8.437-13.455-4.491-8.816-12.354,4.289-7.271-.7-10.488-6.6-11.621-7.525-1.447-3.253-4.41-6.915-11.431-4.653-8.921-11.829-6.271-11.829-6.271s-9-4.891-18.163,2.842c-9.658,8.149-7.552,15.357-2.382,25.256,2.613,5-.595,9.461-2.881,18.658-2.743,11.035,10.881,33.247,40.034,18.243C282.055,248.315,288.922,235.27,288.34,230.794Z" transform="translate(-192.003 -187.572)" fill="#13448c"/>
            <path id="Path_32" data-name="Path 32" d="M252.311,227.645s-4.451.476-8.98,5.005c-3.044,3.045-17.948,32.711-17.948,32.711l-13.756-42.126-10.072.775s11.34,67.753,20.163,67.878c8.343.12,34.844-43.743,34.844-43.743Z" transform="translate(-196.243 -182.117)" fill="#f95858"/>
            <path id="Path_33" data-name="Path 33" d="M276,245.637l8.82,33.016-52.146,4.26.239,9.416s60.114.269,71.438.15c7.542-.08-6.658-59.794-15.716-66.629-7.164-5.4-26.967-3.963-26.967-3.963l-14.113,5.99s-16.37,16.209-6.6,31.467c7.7,12.018-2.115,35.365-2.115,35.365l33.33,1.983,29.767.281Z" transform="translate(-191.481 -182.35)" fill="#f95858"/>
            <path id="Path_34" data-name="Path 34" d="M242.034,281.271l1.868-.341c1.787-7.806,2.107-18.473-1.967-23.6-8.072-10.158.239-24.911,4.906-30.245h-.008c-.747.754-16.1,16.546-6.567,31.44C244.823,265.637,243.709,274.9,242.034,281.271Z" transform="translate(-190.794 -181.528)" fill="#e54848"/>
            <path id="Path_35" data-name="Path 35" d="M234.715,276.677c-5.515.2-11.414,2.175-14.174,5.418a1.114,1.114,0,0,0,.854,1.83H234.8Z" transform="translate(-193.377 -173.939)" fill="#ffb19e"/>
            <g id="Group_16" data-name="Group 16" transform="translate(45.472)">
              <path id="Path_36" data-name="Path 36" d="M261.1,214.11v11.134l-9.978,11.425-.063-.127-2.718-5.815v-6.246a12.666,12.666,0,0,1-10.549-9.864l-1.41-7.706a24.186,24.186,0,0,0,13.356-6.805,28.517,28.517,0,0,0,4.33,5.789c1.854,1.841,4.418,2.3,5.4,3.3A6.128,6.128,0,0,1,261.1,214.11Z" transform="translate(-236.384 -185.657)" fill="#ffb19e"/>
              <path id="Path_37" data-name="Path 37" d="M257.184,206.382a30.843,30.843,0,0,0-2.146-8.7c-2.041-4.614-4.914-10.018-10.877-10.034,0,0,14.478-2.251,16.9,17.906Z" transform="translate(-235.194 -187.575)" fill="#ff4751"/>
              <g id="Group_14" data-name="Group 14" transform="translate(17.618 15.765)">
                <path id="Path_38" data-name="Path 38" d="M264.7,207.6a6.554,6.554,0,1,0-5.739,7.721A6.812,6.812,0,0,0,264.7,207.6Z" transform="translate(-251.663 -201.247)" fill="#ff4751"/>
                <path id="Path_39" data-name="Path 39" d="M260.184,214.637a6.559,6.559,0,0,1-6.984-6.083,6.633,6.633,0,0,1,4.784-7.3c-.178,0-.356.009-.537.029a7.082,7.082,0,0,0,1.515,14.039,6.109,6.109,0,0,0,2.967-1.156A5.847,5.847,0,0,1,260.184,214.637Z" transform="translate(-251.663 -201.246)" fill="#cc3241"/>
                <path id="Path_40" data-name="Path 40" d="M261.634,207.324a3.177,3.177,0,1,0-2.782,3.742A3.3,3.3,0,0,0,261.634,207.324Z" transform="translate(-251.104 -200.789)" fill="#cc3241"/>
              </g>
              <path id="Path_41" data-name="Path 41" d="M256.189,217.15a40.125,40.125,0,0,1-4.672,5.1,3.308,3.308,0,0,0-1.168,2.564l-.875,9.115-2.718-5.815V221.9l.063-.063S253.1,220.884,256.189,217.15Z" transform="translate(-234.797 -183.049)" fill="#f48f7a"/>
              <g id="Group_15" data-name="Group 15" transform="translate(14.094 27.423)">
                <path id="Path_42" data-name="Path 42" d="M251.27,217.559l-.11-.634c3.64-.623,6.3-5.518,6.328-5.567l.568.3C257.942,211.875,255.216,216.885,251.27,217.559Z" transform="translate(-248.217 -211.358)" fill="#ff4751"/>
                <path id="Path_43" data-name="Path 43" d="M252.338,216.529c-.086-.6-.989-.925-2.018-.733s-1.793.834-1.707,1.43.989.926,2.018.733S252.425,217.126,252.338,216.529Z" transform="translate(-248.607 -210.687)" fill="#ff4751"/>
              </g>
            </g>
            <path id="Path_44" data-name="Path 44" d="M211.253,225.716s1.422-11.658.142-12.085-2.56,4.55-2.56,4.55-5.4-10.52-9.1-9.383,3.1,17.316,3.1,17.316Z" transform="translate(-196.689 -184.34)" fill="#ffb19e"/>
            <path id="Path_45" data-name="Path 45" d="M241.37,278.708l41.063-3.434a2.368,2.368,0,0,0,2.129-2.817c-1.517-7.676-5.9-29.685-6.163-29.029-.318.794,4.131,25.9-1.113,28.447C273.7,273.614,241.37,278.708,241.37,278.708Z" transform="translate(-190.149 -179.029)" fill="#e54848"/>
            <g id="Group_18" data-name="Group 18" transform="translate(0 112.307)">
              <g id="Group_17" data-name="Group 17" transform="translate(57.375 101.111)">
                <path id="Path_46" data-name="Path 46" d="M267.307,380.395a1.334,1.334,0,0,0-.782.532c-2.614,3.636-4.932,4.495-9.516,5.111a2.716,2.716,0,0,0-.86.287c.352-.528,1.879-3.03.827-5.283a25.615,25.615,0,0,0-2.615-4.387l6.7-3.987S265.166,377.406,267.307,380.395Z" transform="translate(-245.536 -372.667)" fill="#ffb19e"/>
                <path id="Path_47" data-name="Path 47" d="M273.437,387.89c-1.184,1.135-20.3,11.581-24.837,14.2-.555.321-1.679.906-1.884.3-.323-.948,7.942-16.9,11.465-17.373,4.581-.62,6.9-1.476,9.511-5.115a1.334,1.334,0,0,1,2.2.025C271.726,382.7,274.389,386.979,273.437,387.89Z" transform="translate(-246.707 -371.646)" fill="#13448c"/>
              </g>
              <path id="Path_48" data-name="Path 48" d="M244.569,284.976s-46.379,21.5-47.608,36.408c-1.094,13.26,67.258,73.924,67.258,73.924l10.807-4.45-37.408-60.3s39.629-19.534,49.312-43.052Z" transform="translate(-196.948 -284.976)" fill="#13448c"/>
              <path id="Path_49" data-name="Path 49" d="M213.551,316.853c-3.147,6.053-5.457,14.508-7.069,22.17,5.251,6.233,11.874,13.252,18.72,20.154-5.056-19.978-9.545-40.013-7.994-42.882,2.958-5.472,22.611-20.021,36.5-27.257C253.707,289.038,220.851,302.812,213.551,316.853Z" transform="translate(-195.489 -284.354)" fill="#09326d"/>
            </g>
            <g id="Group_21" data-name="Group 21" transform="translate(21.404 113.347)">
              <g id="Group_19" data-name="Group 19" transform="translate(0.166 110.454)">
                <path id="Path_50" data-name="Path 50" d="M243.568,391.467a1.335,1.335,0,0,0-.942.082c-4.056,1.9-6.5,1.513-10.8-.189a2.717,2.717,0,0,0-.891-.169c.565-.288,3.12-1.726,3.3-4.206a25.623,25.623,0,0,0-.138-5.1l7.792-.208S243.16,387.813,243.568,391.467Z" transform="translate(-213.317 -381.672)" fill="#ffb19e"/>
                <path id="Path_51" data-name="Path 51" d="M246.072,400.617c-1.588.412-24.144.161-29.386.229a1.014,1.014,0,0,1-1.014-1.2c.182-.984,15.184-10.862,18.49-9.556,4.3,1.7,6.744,2.082,10.8.182a1.333,1.333,0,0,1,1.906,1.1C247.112,394.689,247.349,400.286,246.072,400.617Z" transform="translate(-215.655 -380.401)" fill="#13448c"/>
              </g>
              <g id="Group_20" data-name="Group 20">
                <path id="Path_52" data-name="Path 52" d="M304.4,287.054s3.886,26.264-19.656,32.912a319.381,319.381,0,0,1-38.457,7.914l1.424,74.545H235.332s-22.724-79.711-19.509-85.646c3.651-6.74,32.568-27.209,44.92-30.9Z" transform="translate(-215.511 -285.878)" fill="#1d54b5"/>
                <path id="Path_53" data-name="Path 53" d="M243.478,327.777a319.381,319.381,0,0,0,38.457-7.914c23.542-6.648,19.656-32.912,19.656-32.912l-14.574-.392c-4.378,9.416-18.619,32.729-53.152,35.244l7.819,80.52H244.9Z" transform="translate(-212.702 -285.774)" fill="#0e367c" opacity="0.13" style="mix-blend-mode: multiply;isolation: isolate"/>
              </g>
            </g>
          </g>
          <g id="Group_25" data-name="Group 25" transform="translate(0 109.915)">
            <g id="Group_23" data-name="Group 23" transform="translate(7.45 3.54)">
              <path id="Path_54" data-name="Path 54" d="M110.018,416.814l-5.183-.04,21.55-129.515,5.215-.04Z" transform="translate(-104.834 -285.78)" fill="#fff"/>
              <path id="Path_55" data-name="Path 55" d="M298.007,416.963l5.506.042L276.795,285.971l-5.472.042Z" transform="translate(-79.355 -285.971)" fill="#fff"/>
            </g>
            <g id="Group_24" data-name="Group 24" transform="translate(27.588 3.54)">
              <path id="Path_56" data-name="Path 56" d="M127.505,294.4l1.421-7.18-5.215.04L122.3,294.4Z" transform="translate(-122.299 -285.78)" fill="#e4edf7"/>
              <path id="Path_57" data-name="Path 57" d="M278.547,294.59l-1.753-8.619-5.472.042,1.743,8.577Z" transform="translate(-99.492 -285.971)" fill="#e4edf7"/>
            </g>
            <path id="Path_58" data-name="Path 58" d="M334.7,282.9H101.005a2.632,2.632,0,0,0-2.632,2.632h0a2.632,2.632,0,0,0,2.632,2.632H334.7a2.632,2.632,0,0,0,2.632-2.632h0A2.632,2.632,0,0,0,334.7,282.9Z" transform="translate(-98.373 -282.901)" fill="#fff"/>
          </g>
        </g>
        <g id="Group_41" data-name="Group 41" transform="translate(82.706 15.853)">
          <g id="Group_31" data-name="Group 31" transform="translate(65.415 54.219)">
            <path id="Path_59" data-name="Path 59" d="M232.558,188.443,226.4,152.785a3.358,3.358,0,0,0-3.323-2.873l-57.291.626a3.358,3.358,0,0,0-3.323,3.842l5.4,31.288,2.733,17.714a1.038,1.038,0,0,0,1.89.416l7.292-10.971,49.455-.541A3.359,3.359,0,0,0,232.558,188.443Z" transform="translate(-162.427 -149.912)" fill="#1d54b5"/>
            <g id="Group_30" data-name="Group 30" transform="translate(15.629 11.063)">
              <g id="Group_27" data-name="Group 27">
                <path id="Path_60" data-name="Path 60" d="M210.111,159.507h-33.2a.927.927,0,0,0-.916,1.076l.156.969a.929.929,0,0,0,.917.779h33.2a.928.928,0,0,0,.917-1.076l-.157-.969A.928.928,0,0,0,210.111,159.507Z" transform="translate(-175.981 -159.507)" fill="#fff"/>
              </g>
              <g id="Group_28" data-name="Group 28" transform="translate(1.115 8.813)">
                <path id="Path_61" data-name="Path 61" d="M211.079,167.15h-33.2a.928.928,0,0,0-.916,1.077l.157.967a.929.929,0,0,0,.916.781h33.2a.928.928,0,0,0,.916-1.077l-.157-.969A.928.928,0,0,0,211.079,167.15Z" transform="translate(-176.949 -167.15)" fill="#fff"/>
              </g>
              <g id="Group_29" data-name="Group 29" transform="translate(11.044 18.381)">
                <path id="Path_62" data-name="Path 62" d="M201.853,175.448l-15.364.027a.928.928,0,0,0-.917,1.076l.157.969a.928.928,0,0,0,.916.779l15.365-.027a.927.927,0,0,0,.915-1.076l-.157-.969A.927.927,0,0,0,201.853,175.448Z" transform="translate(-185.56 -175.448)" fill="#fff"/>
              </g>
            </g>
          </g>
          <g id="Group_36" data-name="Group 36" transform="translate(304.345)">
            <path id="Path_63" data-name="Path 63" d="M433.574,139.134l7.624-33.541a2,2,0,0,0-2.044-2.7l-54.126.589a5.189,5.189,0,0,0-4.572,3.614l-6.689,29.43-4.094,16.663c-.216.881.831,1.135,1.621.392l10.987-10.321L429,142.747A5.186,5.186,0,0,0,433.574,139.134Z" transform="translate(-369.644 -102.889)" fill="#1d54b5"/>
            <g id="Group_35" data-name="Group 35" transform="translate(20.962 10.892)">
              <g id="Group_32" data-name="Group 32" transform="translate(2.157)">
                <path id="Path_64" data-name="Path 64" d="M420.842,112.335H391.128a1.363,1.363,0,0,0-1.206.963l-.205.867a.524.524,0,0,0,.541.7h29.714a1.36,1.36,0,0,0,1.2-.964l.206-.866A.524.524,0,0,0,420.842,112.335Z" transform="translate(-389.695 -112.335)" fill="#fff"/>
              </g>
              <g id="Group_33" data-name="Group 33" transform="translate(0 7.887)">
                <path id="Path_65" data-name="Path 65" d="M418.972,119.175H389.257a1.364,1.364,0,0,0-1.2.964l-.206.866a.525.525,0,0,0,.541.7H418.1a1.363,1.363,0,0,0,1.2-.964l.206-.867A.524.524,0,0,0,418.972,119.175Z" transform="translate(-387.824 -119.175)" fill="#fff"/>
              </g>
              <g id="Group_34" data-name="Group 34" transform="translate(5.452 16.449)">
                <path id="Path_66" data-name="Path 66" d="M407.746,126.6l-13.76.024a1.363,1.363,0,0,0-1.2.963l-.206.867a.524.524,0,0,0,.541.7l13.76-.024a1.36,1.36,0,0,0,1.2-.963l.206-.867A.524.524,0,0,0,407.746,126.6Z" transform="translate(-392.552 -126.601)" fill="#fff"/>
              </g>
            </g>
          </g>
          <g id="Group_40" data-name="Group 40" transform="translate(0 46.73)">
            <path id="Path_67" data-name="Path 67" d="M165.645,189.179a1.037,1.037,0,0,0,1.686-.974l-7.346-42.349a2.85,2.85,0,0,0-2.82-2.439l-48.619.532a2.85,2.85,0,0,0-2.82,3.261l5.226,30.26a2.851,2.851,0,0,0,2.82,2.44l37.437-.409a7.507,7.507,0,0,1,4.884,1.735Z" transform="translate(-105.695 -143.417)" fill="#f95858"/>
            <g id="Group_39" data-name="Group 39" transform="translate(10.68 12.71)">
              <g id="Group_37" data-name="Group 37">
                <path id="Path_68" data-name="Path 68" d="M149.088,154.44h-33.2a.929.929,0,0,0-.917,1.077l.157.969a.928.928,0,0,0,.917.779h33.2a.927.927,0,0,0,.916-1.076l-.157-.969A.928.928,0,0,0,149.088,154.44Z" transform="translate(-114.958 -154.44)" fill="#fff"/>
              </g>
              <g id="Group_38" data-name="Group 38" transform="translate(1.116 8.814)">
                <path id="Path_69" data-name="Path 69" d="M150.056,162.084h-33.2a.927.927,0,0,0-.916,1.076l.157.969a.927.927,0,0,0,.916.779h33.2a.928.928,0,0,0,.917-1.076l-.157-.969A.929.929,0,0,0,150.056,162.084Z" transform="translate(-115.926 -162.084)" fill="#fff"/>
              </g>
            </g>
          </g>
        </g>
        <g id="Group_56" data-name="Group 56" transform="translate(298.473 27.951)">
          <g id="Group_54" data-name="Group 54">
            <g id="Group_44" data-name="Group 44" transform="translate(0 51.089)">
              <path id="Path_70" data-name="Path 70" d="M391.187,244.45l-.179,6.666-4,154.789H371.014L356.847,273.276a.055.055,0,0,0-.013.038L338.826,318.03,351.115,405.9l-5.911.051-9.775.09s-29.242-87.692-28.653-93.373,22.55-67.644,22.55-67.644Z" transform="translate(-290.689 -144.411)" fill="#1d54b5"/>
              <path id="Path_71" data-name="Path 71" d="M389.61,161.922l-30.044-4.13-.7-.1-14.368.064-.128.026-17.159,4.294v96.5h62.4Z" transform="translate(-287.561 -157.689)" fill="#f95858"/>
              <path id="Path_72" data-name="Path 72" d="M425.917,179.715s2.184-13.643,3.769-13.709,1.414,5.975,1.414,5.975,9.53-10.136,13.338-7.648S435.3,182.9,435.3,182.9Z" transform="translate(-272.454 -156.733)" fill="#ffb19e"/>
              <path id="Path_73" data-name="Path 73" d="M349.782,157.818l1.627,106.564H328.94l-1.587-29.166-29.812-.484A4.569,4.569,0,0,1,293,228.9l14.851-51.638a17.549,17.549,0,0,1,12.628-12.2l29.145-7.293Z" transform="translate(-292.823 -157.677)" fill="#4286e8"/>
              <path id="Path_74" data-name="Path 74" d="M447.1,184.277l-28.9,59.377a4.93,4.93,0,0,1-8.534.166l-22.62-37.488-1.127,58.048h-24L355.193,157.8l.09-.025,30.528,4.2a17.694,17.694,0,0,1,13.267,9.774L414.52,203.6a1.21,1.21,0,0,0,2.009.242l19.643-23.466Z" transform="translate(-283.278 -157.676)" fill="#4286e8"/>
              <path id="Path_75" data-name="Path 75" d="M322.647,227.229h29.291l.283-15L322.93,211.8Z" transform="translate(-288.259 -149.407)" fill="#4286e8"/>
              <path id="Path_76" data-name="Path 76" d="M348.227,223.03c8.262-.3,17.1-3.257,21.234-8.116a1.668,1.668,0,0,0-1.28-2.741H348.1Z" transform="translate(-284.363 -149.351)" fill="#ffb19e"/>
              <path id="Path_77" data-name="Path 77" d="M340.677,225.8l.028-.481-17.921-.132,1.572,28.882,5.346-23.931Z" transform="translate(-288.238 -147.36)" fill="#13448c" opacity="0.41"/>
              <path id="Path_78" data-name="Path 78" d="M381.933,250.231l-4,154.789h-1.126L366.068,250.231Z" transform="translate(-281.614 -143.527)" fill="#0e367c" opacity="0.32" style="mix-blend-mode: multiply;isolation: isolate"/>
              <path id="Path_79" data-name="Path 79" d="M353.505,214.954s-39.735,2.878-39.479,2.123l6.9-23.769.1.359.678,16.581C321.793,212.5,351.433,214.366,353.505,214.954Z" transform="translate(-289.578 -152.238)" fill="#13448c" opacity="0.41"/>
              <path id="Path_80" data-name="Path 80" d="M413.966,240.143l28.9-59.377-.134-.045c-3.067-.014-29.962,56.218-32.791,57.632-3.222,1.611-27.133-35.532-27.133-35.532l22.62,37.488A4.93,4.93,0,0,0,413.966,240.143Z" transform="translate(-279.051 -154.164)" fill="#13448c" opacity="0.41"/>
              <g id="Group_42" data-name="Group 42" transform="translate(26.348 261.352)">
                <path id="Path_81" data-name="Path 81" d="M335.882,384.465c-3.449,7.063-19.84,10.633-19.84,10.633a4.51,4.51,0,0,0,.688,4.721c1.873,2.637,19.121,1.022,21.283.542a7.521,7.521,0,0,0,3.651-2.235,12.057,12.057,0,0,0,2.262,1.967c.811.39,5.215-.492,5.215-.492,1.037-2.81,0-13.538-.3-15.249Z" transform="translate(-315.674 -384.352)" fill="#13448c"/>
              </g>
              <g id="Group_43" data-name="Group 43" transform="translate(81.109 261.352)">
                <path id="Path_82" data-name="Path 82" d="M376.877,384.465c3.449,7.063,19.84,10.633,19.84,10.633a4.509,4.509,0,0,1-.69,4.721c-1.871,2.637-19.12,1.022-21.282.542a7.522,7.522,0,0,1-3.651-2.235,12.056,12.056,0,0,1-2.262,1.967c-.811.39-5.215-.492-5.215-.492-1.037-2.81,0-13.538.3-15.249Z" transform="translate(-363.167 -384.352)" fill="#13448c"/>
              </g>
              <path id="Path_83" data-name="Path 83" d="M335.84,314.2l12.289,87.872-5.911.051c-3.647-18.923-16.4-82.19-15.923-86.156.55-4.734,26.747-45.139,27.553-46.483Z" transform="translate(-287.702 -140.58)" fill="#0e367c" opacity="0.32" style="mix-blend-mode: multiply;isolation: isolate"/>
            </g>
            <g id="Group_53" data-name="Group 53" transform="translate(45.289)">
              <g id="Group_46" data-name="Group 46" transform="translate(1.253)">
                <path id="Path_84" data-name="Path 84" d="M357.211,159.545c-2.178,1.739-7.442,5.445-7.442,5.445s-5.356-3.669-7.57-5.431l-.017-12.718h15.029Z" transform="translate(-331.811 -108.26)" fill="#ffb19e" fill-rule="evenodd"/>
                <path id="Path_85" data-name="Path 85" d="M357.216,146.841v5.32a11.848,11.848,0,0,1-15.029.061v-5.381Z" transform="translate(-331.81 -108.26)" fill="#ffb19e" fill-rule="evenodd"/>
                <path id="Path_86" data-name="Path 86" d="M334.393,143.741h33.768l.521-9.4c7.465-3.158,1.866-20.959,1.866-20.959.431,4.307-11.2,4.45-15.791,3.732a12.494,12.494,0,0,0-7.752,1.148s-14.642-3.158-13.781,17.371A37.818,37.818,0,0,0,334.393,143.741Z" transform="translate(-333.187 -113.381)" fill="#13448c" fill-rule="evenodd"/>
                <g id="Group_45" data-name="Group 45" transform="translate(0.064 13.94)">
                  <path id="Path_87" data-name="Path 87" d="M364.018,132.475v8.473a13.152,13.152,0,0,1-4.123,9.57c-.43.382-.861.8-1.308,1.21a11.843,11.843,0,0,1-16.228,0l-1.291-1.21a13.071,13.071,0,0,1-4.139-9.543v-6.466s3.913-2.622,9.295-9.038C346.223,125.471,352.175,131.183,364.018,132.475Z" transform="translate(-332.679 -125.471)" fill="#ffb19e" fill-rule="evenodd"/>
                  <path id="Path_88" data-name="Path 88" d="M357.216,148.669v3.212a11.848,11.848,0,0,1-15.029.061v-3.224A11.831,11.831,0,0,0,357.216,148.669Z" transform="translate(-331.874 -121.921)" fill="#f48f7a" fill-rule="evenodd"/>
                  <path id="Path_89" data-name="Path 89" d="M340.855,141.474a4.3,4.3,0,0,0-6-6.005,2.6,2.6,0,0,0-.818.818,4.3,4.3,0,0,0,6.005,6.005A2.6,2.6,0,0,0,340.855,141.474Z" transform="translate(-333.243 -124.061)" fill="#ffb19e" fill-rule="evenodd"/>
                  <path id="Path_90" data-name="Path 90" d="M364.25,141.476a4.287,4.287,0,0,0-5.705-6.179,3.262,3.262,0,0,0-1.291,1.293,4.287,4.287,0,0,0,6.179,5.7A2.575,2.575,0,0,0,364.25,141.476Z" transform="translate(-329.663 -124.061)" fill="#ffb19e" fill-rule="evenodd"/>
                </g>
              </g>
              <g id="Group_52" data-name="Group 52" transform="translate(0 3.353)">
                <path id="Path_91" data-name="Path 91" d="M367.539,135.346h-1.284V130.9c0-7.383-6.733-13.389-15.01-13.389h-.633c-8.278,0-15.011,6.006-15.011,13.389v4.446h-1.283V130.9c0-8.056,7.309-14.611,16.295-14.611h.633c8.984,0,16.295,6.555,16.295,14.611Z" transform="translate(-331.762 -116.289)" fill="#a31919"/>
                <g id="Group_51" data-name="Group 51" transform="translate(0 16.687)">
                  <g id="Group_49" data-name="Group 49">
                    <g id="Group_47" data-name="Group 47" transform="translate(31.087)">
                      <path id="Path_92" data-name="Path 92" d="M362.683,130.761h0a3.632,3.632,0,0,0-3.621,3.622v6.454a3.631,3.631,0,0,0,3.621,3.621h0a3.631,3.631,0,0,0,3.621-3.621v-6.454A3.632,3.632,0,0,0,362.683,130.761Z" transform="translate(-359.062 -130.761)" fill="#f95858"/>
                      <path id="Path_93" data-name="Path 93" d="M362.346,130.761a3.564,3.564,0,0,0-1.085.186,3.623,3.623,0,0,1,2.534,3.436v6.454a3.621,3.621,0,0,1-2.534,3.435,3.529,3.529,0,0,0,1.085.186,3.631,3.631,0,0,0,3.621-3.621v-6.454A3.632,3.632,0,0,0,362.346,130.761Z" transform="translate(-358.725 -130.761)" fill="#cc3241"/>
                    </g>
                    <g id="Group_48" data-name="Group 48">
                      <path id="Path_94" data-name="Path 94" d="M335.722,130.761h0a3.632,3.632,0,0,0-3.621,3.622v6.454a3.631,3.631,0,0,0,3.621,3.621h0a3.631,3.631,0,0,0,3.621-3.621v-6.454A3.632,3.632,0,0,0,335.722,130.761Z" transform="translate(-332.101 -130.761)" fill="#f95858"/>
                      <path id="Path_95" data-name="Path 95" d="M335.385,130.761a3.564,3.564,0,0,0-1.085.186,3.623,3.623,0,0,1,2.534,3.436v6.454a3.621,3.621,0,0,1-2.534,3.435,3.529,3.529,0,0,0,1.085.186,3.631,3.631,0,0,0,3.621-3.621v-6.454A3.632,3.632,0,0,0,335.385,130.761Z" transform="translate(-331.764 -130.761)" fill="#cc3241"/>
                    </g>
                  </g>
                  <g id="Group_50" data-name="Group 50" transform="translate(21.495 11.57)">
                    <path id="Path_96" data-name="Path 96" d="M353.727,146.965l-.046-.719c4.129-.262,7.675-5.4,7.71-5.45l.6.407C361.835,141.426,358.2,146.681,353.727,146.965Z" transform="translate(-350.293 -140.795)" fill="#ff4751"/>
                    <path id="Path_97" data-name="Path 97" d="M354.976,146.01c-.025-.676-.993-1.148-2.162-1.056s-2.1.715-2.071,1.389.993,1.148,2.162,1.056S355,146.684,354.976,146.01Z" transform="translate(-350.743 -140.16)" fill="#ff4751"/>
                  </g>
                </g>
              </g>
            </g>
          </g>
          <g id="Group_55" data-name="Group 55" transform="translate(30.741 69.878)">
            <path id="Path_98" data-name="Path 98" d="M376.905,173.984H324.455a5.1,5.1,0,0,0-4.966,5.465l1.376,33.76a5.168,5.168,0,0,0,5.093,4.925H375.4a5.168,5.168,0,0,0,5.092-4.925l1.376-33.76A5.1,5.1,0,0,0,376.905,173.984Z" transform="translate(-319.484 -173.984)" fill="#13448c"/>
            <path id="Path_99" data-name="Path 99" d="M376.726,173.984H324.275a4.833,4.833,0,0,0-3.616,1.633,4.722,4.722,0,0,1,1.353-.217h52.45a5.1,5.1,0,0,1,4.966,5.464l-1.374,33.76a5.11,5.11,0,0,1-1.4,3.272,5.172,5.172,0,0,0,3.663-4.687l1.376-33.76A5.1,5.1,0,0,0,376.726,173.984Z" transform="translate(-319.304 -173.984)" fill="#1d54b5"/>
            <path id="Path_100" data-name="Path 100" d="M352.942,194.676A5.943,5.943,0,1,0,347,200.62,5.943,5.943,0,0,0,352.942,194.676Z" transform="translate(-316.183 -171.727)" fill="#4286e8"/>
          </g>
        </g>
      </g>
    </g>
  </g>
</svg>
