<svg xmlns="http://www.w3.org/2000/svg" xmlns:xlink="http://www.w3.org/1999/xlink" width="375" height="812" viewBox="0 0 375 812">
  <defs>
    <clipPath id="clip-path">
      <rect id="Rectangle_36" data-name="Rectangle 36" width="375" height="812" fill="#fff" stroke="#707070" stroke-width="1"/>
    </clipPath>
  </defs>
  <g id="hero-bg-m" clip-path="url(#clip-path)">
    <g id="Group_121" data-name="Group 121">
      <g id="Group_119" data-name="Group 119" transform="translate(-675.175 36.457)">
        <path id="Path_107" data-name="Path 107" d="M2215.47,23.088s99.4-13.837,21.444,79.16S2131.056,247.559,2209.3,307.2s152.17,70.51,220.546,17.2S2568.376,291.19,2566,388.616s42.021-223.161,42.021-223.161L2566,23.088H2309.758" transform="translate(-1427.457 -62.473)" fill="#343b8f"/>
        <path id="Path_110" data-name="Path 110" d="M2489-24.954s59.377,62.844,0,141.891S2418.031,284.279,2565.29,278.9s231.354-78.361,231.354-78.361l25.708-165.384L2674.438-42.362Z" transform="translate(-1624.894 -31.687)" fill="#424aa3" opacity="0.234"/>
      </g>
      <g id="Group_120" data-name="Group 120" transform="translate(-130 7.194)">
        <path id="Path_114" data-name="Path 114" d="M2106.155,183.891s.545-2.929-2.636-1.67-6.515,3.02-5.71,0,1.176-5.437-1.594-4.547-6.476,2.224-5.238-.507,4.142-5.2,1.22-5.075" transform="translate(-1700.535 -29.378)" fill="none" stroke="#5a75e5" stroke-width="1"/>
        <path id="Path_115" data-name="Path 115" d="M2090.767,183.891s-.545-2.929,2.636-1.67,6.515,3.02,5.71,0-1.176-5.437,1.594-4.547,6.476,2.224,5.238-.507-4.142-5.2-1.22-5.075" transform="translate(-1794.421 -109.378)" fill="none" stroke="#5a75e5" stroke-width="1"/>
        <path id="Path_116" data-name="Path 116" d="M2090.767,183.891s-.545-2.929,2.636-1.67,6.515,3.02,5.71,0-1.176-5.437,1.594-4.547,6.476,2.224,5.238-.507-4.142-5.2-1.22-5.075" transform="translate(-1903.23 11.677)" fill="none" stroke="#5a75e5" stroke-width="1"/>
        <path id="Path_117" data-name="Path 117" d="M2106.155,183.891s.545-2.929-2.636-1.67-6.515,3.02-5.71,0,1.176-5.437-1.594-4.547-6.476,2.224-5.238-.507,4.142-5.2,1.22-5.075" transform="translate(-1730.064 50.337)" fill="none" stroke="#5a75e5" stroke-width="1"/>
        <path id="Path_118" data-name="Path 118" d="M2090.767,183.891s-.545-2.929,2.636-1.67,6.515,3.02,5.71,0-1.176-5.437,1.594-4.547,6.476,2.224,5.238-.507-4.142-5.2-1.22-5.075" transform="translate(-1802.614 91.055)" fill="none" stroke="#5a75e5" stroke-width="1"/>
        <path id="Path_119" data-name="Path 119" d="M2090.767,183.891s-.545-2.929,2.636-1.67,6.515,3.02,5.71,0-1.176-5.437,1.594-4.547,6.476,2.224,5.238-.507-4.142-5.2-1.22-5.075" transform="translate(-1622.918 11.677)" fill="none" stroke="#5a75e5" stroke-width="1"/>
        <path id="Path_120" data-name="Path 120" d="M2106.155,183.891s.545-2.929-2.636-1.67-6.515,3.02-5.71,0,1.176-5.437-1.594-4.547-6.476,2.224-5.238-.507,4.142-5.2,1.22-5.075" transform="translate(-1945.461 -84.366)" fill="none" stroke="#5a75e5" stroke-width="1"/>
      </g>
      <g id="Group_120-2" data-name="Group 120" transform="matrix(-0.883, -0.469, 0.469, -0.883, 302.304, 528.329)">
        <path id="Path_114-2" data-name="Path 114" d="M15.424,0s.545,2.929-2.636,1.67-6.515-3.02-5.71,0S8.254,7.108,5.484,6.218-.992,3.994.246,6.725s4.142,5.2,1.22,5.075" transform="translate(244.926 41.055)" fill="none" stroke="#5a75e5" stroke-width="1"/>
        <path id="Path_115-2" data-name="Path 115" d="M.036,0S-.51,2.929,2.672,1.67s6.515-3.02,5.71,0S7.206,7.108,9.976,6.218s6.476-2.224,5.238.507-4.142,5.2-1.22,5.075" transform="translate(151.04 121.055)" fill="none" stroke="#5a75e5" stroke-width="1"/>
        <path id="Path_119-2" data-name="Path 119" d="M.036,0S-.51,2.929,2.672,1.67s6.515-3.02,5.71,0S7.206,7.108,9.976,6.218s6.476-2.224,5.238.507-4.142,5.2-1.22,5.075" transform="translate(322.542 0)" fill="none" stroke="#5a75e5" stroke-width="1"/>
        <path id="Path_120-2" data-name="Path 120" d="M15.424,0s.545,2.929-2.636,1.67-6.515-3.02-5.71,0S8.254,7.108,5.484,6.218-.992,3.994.246,6.725s4.142,5.2,1.22,5.075" transform="translate(0 96.044)" fill="none" stroke="#5a75e5" stroke-width="1"/>
      </g>
      <g id="Group_120-3" data-name="Group 120" transform="matrix(0.875, -0.485, 0.485, 0.875, -169.217, 657.724)">
        <path id="Path_114-3" data-name="Path 114" d="M2106.155,183.891s.545-2.929-2.636-1.67-6.515,3.02-5.71,0,1.176-5.437-1.594-4.547-6.476,2.224-5.238-.507,4.142-5.2,1.22-5.075" transform="translate(-1700.535 -29.378)" fill="none" stroke="#5a75e5" stroke-width="1"/>
        <path id="Path_115-3" data-name="Path 115" d="M2090.767,183.891s-.545-2.929,2.636-1.67,6.515,3.02,5.71,0-1.176-5.437,1.594-4.547,6.476,2.224,5.238-.507-4.142-5.2-1.22-5.075" transform="translate(-1794.421 -109.378)" fill="none" stroke="#5a75e5" stroke-width="1"/>
        <path id="Path_116-2" data-name="Path 116" d="M2090.767,183.891s-.545-2.929,2.636-1.67,6.515,3.02,5.71,0-1.176-5.437,1.594-4.547,6.476,2.224,5.238-.507-4.142-5.2-1.22-5.075" transform="translate(-1903.23 11.677)" fill="none" stroke="#5a75e5" stroke-width="1"/>
        <path id="Path_118-2" data-name="Path 118" d="M2090.767,183.891s-.545-2.929,2.636-1.67,6.515,3.02,5.71,0-1.176-5.437,1.594-4.547,6.476,2.224,5.238-.507-4.142-5.2-1.22-5.075" transform="translate(-1802.614 91.055)" fill="none" stroke="#5a75e5" stroke-width="1"/>
      </g>
    </g>
  </g>
</svg>
